<?xml version="1.0" encoding="UTF-8" standalone="no"?>
<svg
   xmlns:dc="http://purl.org/dc/elements/1.1/"
   xmlns:cc="http://creativecommons.org/ns#"
   xmlns:rdf="http://www.w3.org/1999/02/22-rdf-syntax-ns#"
   xmlns:svg="http://www.w3.org/2000/svg"
   xmlns="http://www.w3.org/2000/svg"
   xmlns:sodipodi="http://sodipodi.sourceforge.net/DTD/sodipodi-0.dtd"
   xmlns:inkscape="http://www.inkscape.org/namespaces/inkscape"
   viewBox="0 0 24 24"
   version="1.1"
   id="svg14"
   sodipodi:docname="calendar_simple_icon.svg"
   inkscape:export-filename="/home/gt/code/gitlab/bloben/bloben-calendar/public/calendar_simple_icon.png"
   inkscape:export-xdpi="576"
   inkscape:export-ydpi="576"
   inkscape:version="0.92.4 (5da689c313, 2019-01-14)">
  <metadata
     id="metadata20">
    <rdf:RDF>
      <cc:Work
         rdf:about="">
        <dc:format>image/svg+xml</dc:format>
        <dc:type
           rdf:resource="http://purl.org/dc/dcmitype/StillImage" />
      </cc:Work>
    </rdf:RDF>
  </metadata>
  <defs
     id="defs18" />
  <sodipodi:namedview
     pagecolor="#ffffff"
     bordercolor="#666666"
     borderopacity="1"
     objecttolerance="10"
     gridtolerance="10"
     guidetolerance="10"
     inkscape:pageopacity="0"
     inkscape:pageshadow="2"
     inkscape:window-width="1680"
     inkscape:window-height="930"
     id="namedview16"
     showgrid="false"
     inkscape:zoom="9.8333333"
     inkscape:cx="-2.0338983"
     inkscape:cy="12"
     inkscape:window-x="0"
     inkscape:window-y="27"
     inkscape:window-maximized="1"
     inkscape:current-layer="svg14" />
  <g
     data-name="Layer 2"
     id="g12">
    <g
       data-name="calendar"
       id="g10">
      <rect
         width="24"
         height="24"
         id="rect2"
         x="0"
         y="0"
         style="opacity:0" />
      <path
         d="M 18,4 H 17 V 3 A 1,1 0 0 0 15,3 V 4 H 9 V 3 A 1,1 0 0 0 7,3 V 4 H 6 A 3,3 0 0 0 3,7 v 12 a 3,3 0 0 0 3,3 h 12 a 3,3 0 0 0 3,-3 V 7 A 3,3 0 0 0 18,4 Z M 6,6 H 7 V 7 A 1,1 0 0 0 9,7 V 6 h 6 v 1 a 1,1 0 0 0 2,0 V 6 h 1 a 1,1 0 0 1 1,1 v 4 H 5 V 7 A 1,1 0 0 1 6,6 Z M 18,20 H 6 A 1,1 0 0 1 5,19 v -6 h 14 v 6 a 1,1 0 0 1 -1,1 z"
         id="path4"
         inkscape:connector-curvature="0"
         style="fill:#fefefe;fill-opacity:0.97309417" />
      <circle
         cx="8"
         cy="16"
         r="1"
         id="circle6"
         style="fill:#fefefe;fill-opacity:0.97309417" />
      <path
         d="m 16,15 h -4 a 1,1 0 0 0 0,2 h 4 a 1,1 0 0 0 0,-2 z"
         id="path8"
         inkscape:connector-curvature="0"
         style="fill:#fefefe;fill-opacity:0.97309417" />
    </g>
  </g>
</svg>
